# xmcd CD database file
#
# Track frame offsets:
#	150
#	22282
#	35486
#	46163
#	68158
#	85831
#	104277
#	128815
#	141598
#	162196
#	187928
#	221054
#
# Disc length: 3295 seconds
#
# Revision: 0
# Processed by: cddbd v1.5.2PL0 Copyright (c) Steve Scherf et al.
# Submitted via: CDex 1.51
#
DISCID=ab0cdd0c
DTITLE=Bob Holroyd - Beachcombing
DYEAR=2011
DGENRE=New Age
TTITLE0=Glow
TTITLE1=Beachcombing
TTITLE2=A Weak Winter Sun
TTITLE3=Sacred Light
TTITLE4=Collectors Of Souls
TTITLE5=Mill Pond
TTITLE6=Parallels
TTITLE7=Renewal
TTITLE8=A Stone Left Unturned
TTITLE9=Beautiful Domination
TTITLE10=Samsara
TTITLE11=Hope
EXTD=YEAR: 2011
EXTT0=
EXTT1=
EXTT2=
EXTT3=
EXTT4=
EXTT5=
EXTT6=
EXTT7=
EXTT8=
EXTT9=
EXTT10=
EXTT11=
PLAYORDER=
